<?xml version="1.0" encoding="utf-8"?>
<!-- Generator: Adobe Illustrator 25.4.1, SVG Export Plug-In . SVG Version: 6.00 Build 0)  -->
<svg version="1.1" id="Layer_1" xmlns="http://www.w3.org/2000/svg" xmlns:xlink="http://www.w3.org/1999/xlink" x="0px" y="0px"
	 viewBox="0 0 709.2 709.2" style="enable-background:new 0 0 709.2 709.2;" xml:space="preserve">
<style type="text/css">
	.st0{fill:#FFFFFF;}
	.st1{fill:#003145;}
</style>
<rect x="83" y="20.9" class="st0" width="448.3" height="129.1"/>
<rect x="4.7" y="612.5" class="st0" width="34.2" height="23.9"/>
<rect y="605.4" class="st0" width="66.9" height="15"/>
<rect x="34" y="538" class="st0" width="470" height="124.5"/>
<rect x="10" y="600" class="st0" width="539" height="43"/>
<rect x="83" y="110" class="st0" width="616.8" height="495.4"/>
<path class="st1" d="M705.6,463.4c-3.3-0.7-145.7-29.1-172.1-34.3c11.3-8.6,19.3-18.9,23-32.2s1.9-26.1-3.6-39.7
	c26.2,8.5,126.7,42.8,152.4,51.5l3.9,1.3V103.8C709.2,46.5,662.7,0,605.4,0H103.8C46.5,0,0,46.5,0,103.8v501.5
	c0,57.4,46.5,103.8,103.8,103.8h501.5c57.4,0,103.8-46.5,103.8-103.8V464.1L705.6,463.4z M233.8,153.5c5.8-17.7,11.7-35.4,17.5-53.1
	c4.2-12.8,12.2-22.5,23.3-29.9c11.9-7.8,25.2-11.8,39.1-14.3c14.2-2.6,28.5-2.6,42.7-1.7c21.9,1.3,43.4,6.7,63.2,16
	c18,8.4,34.8,18.6,49.2,32.5c9.5,9.2,17.2,19.6,21.7,32.2c3.4,10.1,4,20.9,1.8,31.2c-3.7,18.2-7.5,36.5-11.3,54.7
	c-0.2,0.9-0.5,1.7-1,3c-2-5-3.7-9.6-5.8-14c-10.8-22.8-27.6-40.4-48.5-54.2c-20.6-13.5-43.7-22.6-67.9-27c-11.9-2.2-24-3.7-36.1-3.4
	c-29.8,0.8-57.7,8-81.8,26.6c-2.2,1.7-4.3,3.4-7.3,5.8C233.2,155.8,233.5,154.6,233.8,153.5z M126.4,479.8c6.9-21.4,14-42.8,21-64.2
	c1.9-5.9,5.7-10.3,10.4-14c12.6-9.9,27-15.7,42.3-19.9c10.9-3.1,22.1-5,33.4-5.6c9-0.4,18-1.2,27-0.7c16.3,0.9,32.4,3.6,48,8.2
	c24.9,7.2,47.9,18.2,68.5,33.8c16.4,12.4,30.7,26.8,40.8,44.8c2.6,4.9,4.8,10.1,6.5,15.4c1.6,4.3,1.3,8.9,0.4,13.3
	c-4.5,21.7-9.1,43.5-13.6,65.2c-1.6,7.5-4,10.1-10.8,11c-0.5-1.1-0.9-2.2-1.3-3.3c-4.1-16.6-13.7-29.8-25.9-41.2
	c-17.7-16.6-38.4-28.4-60.5-37.9c-17-7.4-34.8-12.7-53-15.7c-10.4-1.7-20.8-3.3-31.4-3.2c-4.2,0-8.4-0.8-12.5-0.7
	c-17,0.7-34,2-50.4,7.7c-12.8,4.5-24.4,10.8-33.6,21c-0.4,0.3-0.9,0.6-1.4,0.9c-3.1-1.3-4.9-3.6-4.9-7
	C125.4,485,125.7,482.4,126.4,479.8L126.4,479.8z M107.4,595.5c4.8-2.1,9.8-3.6,15-4.6c9.9-1.7,19.9-2.9,29.9-3.9
	c8.5-0.9,17-1.4,25.5-1.9c7.1-0.4,14.2-0.8,21.4-0.9c15.7-0.3,31.4-0.6,47-0.8c1.3,0,2.6-0.2,3.9-0.3c0.1-0.3,0.1-0.7,0.2-1
	c-1.5-0.6-2.9-1.2-4.4-1.7C221.5,573,198.3,563,177,549c-9.1-6-17.9-12.4-24.7-21.1c-2.5-3.2-4.6-6.6-6.2-10.3
	c-2.3-5.3-1.4-10.6,3-14.5c3.4-2.9,7.2-5.4,11.2-7.3c7.5-3.4,15.5-5.6,23.7-6.5c9.1-1.2,18.2-1.9,27.3-1.9
	c28.1,0.2,56,5.2,82.5,14.7c21.9,7.8,42.6,18.1,61.1,32.4c6.8,5,12.8,10.9,18,17.5c3.2,4,5.6,8.6,6.9,13.6c1.3,4.6-0.2,9.5-3.8,12.7
	c-4.1,4-9.4,6-14.7,7.8c-2.8,0.9-5.7,1.4-8.6,2.2c-1.4,0.4-2.8,0.9-4.3,1.4v0.9c2.6,0.7,5.3,1.4,7.9,2.2c2.7,0.8,5.3,1.8,7.8,3
	c2.7,1.4,2.7,3.4,0,4.8c-2.7,1.5-5.6,2.6-8.7,3.2c-10.5,1.8-21.1,3.6-31.7,4.9c-9.7,1.2-19.4,1.8-29.2,2.7c-0.5,0.1-0.9,0.1-1.4,0.1
	c-32,1.5-64,1.2-96,0.8c-10.7-0.1-21.4-0.9-32-1.8c-16.3-1.4-32.8-2.7-48.8-6.5c-3.2-0.8-6.2-1.9-9.2-3.3
	C104.4,599.1,104.3,596.8,107.4,595.5L107.4,595.5z M461.8,634.3c-6.6,2.8-13.1,5.8-19.9,7.7c-17.2,4.8-34.7,8.3-52.4,10.5
	c-11.2,1.5-22.4,3.2-33.6,4.4c-8.3,1-16.7,1.4-25,2c-11.9,0.9-23.8,1.8-35.7,2.7c-0.6,0-1.2,0-1.9,0.1c-26.1,0.3-52.2,0.8-78.3,0.9
	c-12.6,0-25.2-0.3-37.7-1c-11.8-0.6-23.5-1.7-35.2-2.6c-8.7-0.7-17.3-1.1-26-2.1c-13.2-1.6-26.4-3.5-39.6-5.3
	c-15.7-2.1-31.2-5.3-46.4-9.5c-6.7-1.9-13.1-4.7-19.6-7.3c-2.7-0.9-4.9-3.1-5.8-5.8L31.2,607c10.2,9.4,23.2,10.9,35.7,13.3
	s25.4,4,38.2,5.6c8.5,1,17,1.5,25.5,2.1c12.2,0.9,24.4,1.7,36.6,2.6c1.1,0.1,2.2,0.1,3.3,0.1c30.3,0.3,60.6,0.8,90.9,0.9
	c13.7,0.1,27.3-0.5,41-1c10.8-0.4,21.7-1,32.5-1.9c15.6-1.3,31.2-2.7,46.7-4.7c14.3-1.8,28.6-4,42.4-8.2c5.8-1.8,11.6-3.7,16-9
	l26.6,21.9C466.2,631.9,464,633.3,461.8,634.3L461.8,634.3z M515.1,418.8c-4.7,3.5-10.6,4.7-16.3,3.4c-16.8-3.7-33.7-6.8-50.6-10.2
	c-6.7-1.3-6.7-1.4-8.1,5.5c-2.2,10.4-4.4,20.9-6.6,31.3c-5.1-10.3-11.2-20.1-18.1-29.3c-14.3-18.7-32.2-33-52.7-44.4
	c-20.7-11.5-42.8-19.1-65.9-23.8c-17.3-3.6-35.1-4.9-52.8-3.9c-26.7,1.7-52,8.5-74.7,23.2c-2.8,1.8-5.6,3.8-9.1,6.2
	c0.6-1.9,0.9-3.1,1.3-4.2c3.9-12,7.7-23.9,11.7-35.9c0.7-2.2,1.9-4.2,3.5-5.9c5.4-6.2,12.1-11.3,19.5-14.8c2.3-1,4-3,4.6-5.4
	c7.1-22.3,14.3-44.6,21.6-66.9c0.9-2.3,0.5-4.9-1-6.9c-3.4-5-5.7-10.7-6.7-16.7c-0.6-2.4-0.6-4.9-0.2-7.4
	c3.9-16.8,11.2-31.5,26-41.6c13.3-9.1,28-14.5,43.7-17.8c14.9-3.1,30.2-3.9,45.4-2.6c37.8,3.1,72.4,15.4,102.5,39
	c14.6,11.5,26.7,25.1,34.6,42.2c3.9,8.4,6.5,17.3,6,26.5c-0.4,6.3-2.2,12.5-3.2,18.8c-0.6,4.2-2.7,8.1-5.8,10.9
	c-3.8,3.6-8,6.8-12.5,9.6c-3.2,1.8-4.9,3.8-5.4,7.4c-0.4,3.2-1.3,6.4-2,9.6c-1.1,5.1-1.1,5.1,4,6.8c8.4,2.9,16.8,5.7,25.1,8.5
	c15.4,5.2,30.8,10.6,46.3,15.6c5.6,1.7,10.1,5.8,12.5,11.1C541.9,378.7,534.9,404.8,515.1,418.8L515.1,418.8z"/>
</svg>
